<svg xmlns="http://www.w3.org/2000/svg" viewBox="0 0 720 405" width="720" height="405">
  <rect width="720" height="405" fill="#000000" />
  <rect x="0" y="0" width="720" height="84" fill="#000000" />
  <text x="18" y="56.400000000000006" fill="#7f7f7f" font-family="Consolas, monospace" font-size="48px" text-anchor="start">BPM</text>
  <text x="150" y="56.400000000000006" fill="#45e3ff" font-family="Consolas, monospace" font-size="48px" text-anchor="start">140</text>
  <polygon points="660,24 660,66 705,45" fill="#2dff64" />
  <rect x="0" y="75" width="360" height="330" fill="#000000" />
  <text x="6" y="158.4" fill="#2dff64" font-family="Consolas, monospace" font-size="48px" text-anchor="start">></text>
  <text x="42" y="158.4" fill="#2dff64" font-family="Consolas, monospace" font-size="48px" text-anchor="start">Stp:</text>
  <text x="186" y="158.4" fill="#2dff64" font-family="Consolas, monospace" font-size="48px" text-anchor="start">12</text>
  <text x="6" y="224.4" fill="#2dff64" font-family="Consolas, monospace" font-size="48px" text-anchor="start">></text>
  <text x="42" y="224.4" fill="#2dff64" font-family="Consolas, monospace" font-size="48px" text-anchor="start">Hit:</text>
  <text x="186" y="224.4" fill="#2dff64" font-family="Consolas, monospace" font-size="48px" text-anchor="start">5</text>
  <text x="6" y="290.4" fill="#2dff64" font-family="Consolas, monospace" font-size="48px" text-anchor="start">></text>
  <text x="42" y="290.4" fill="#2dff64" font-family="Consolas, monospace" font-size="48px" text-anchor="start">Rot:</text>
  <text x="186" y="290.4" fill="#2dff64" font-family="Consolas, monospace" font-size="48px" text-anchor="start">2</text>
  <text x="42" y="362.4" fill="#45e3ff" font-family="Consolas, monospace" font-size="48px" text-anchor="start">HATS</text>
  <rect x="315" y="75" width="405" height="330" fill="#000000" />
  <circle cx="645" cy="210" r="3" fill="#ff4c5c" />
  <circle cx="510" cy="345" r="3" fill="#ff4c5c" />
  <circle cx="375" cy="210" r="3" fill="#ff4c5c" />
  <circle cx="402" cy="210" r="3" fill="#ffe15a" />
  <circle cx="510" cy="129" r="6" fill="#45e3ff" />
  <rect x="549" y="141" width="3" height="3" fill="#7f7f7f" />
  <rect x="579" y="171" width="3" height="3" fill="#7f7f7f" />
  <rect x="591" y="210" width="3" height="3" fill="#7f7f7f" />
  <rect x="579" y="249" width="3" height="3" fill="#7f7f7f" />
  <circle cx="552" cy="279" r="6" fill="#45e3ff" />
  <rect x="510" y="291" width="3" height="3" fill="#7f7f7f" />
  <circle cx="471" cy="279" r="6" fill="#45e3ff" />
  <rect x="441" y="252" width="3" height="3" fill="#7f7f7f" />
  <rect x="429" y="210" width="3" height="3" fill="#7f7f7f" />
  <circle cx="441" cy="171" r="6" fill="#45e3ff" />
  <rect x="468" y="141" width="3" height="3" fill="#7f7f7f" />
  <circle cx="510" cy="210" r="6" fill="#7f7f7f" />
  <circle cx="516" cy="228" r="6" fill="#ffffff" />
  <circle cx="510" cy="30" r="6" stroke="#7f7f7f" stroke-width="3" fill="none" />
  <circle cx="690" cy="210" r="18" stroke="#2dff64" stroke-width="3" fill="none" />
  <circle cx="690" cy="210" r="12" fill="#2dff64" />
  <circle cx="510" cy="390" r="6" stroke="#7f7f7f" stroke-width="3" fill="none" />
  <circle cx="330" cy="210" r="6" stroke="#7f7f7f" stroke-width="3" fill="none" />
</svg>