<svg xmlns="http://www.w3.org/2000/svg" viewBox="0 0 720 405" width="720" height="405">
  <rect width="720" height="405" fill="#000000" />
  <rect x="0" y="0" width="720" height="84" fill="#000000" />
  <text x="18" y="56.400000000000006" fill="#7f7f7f" font-family="Consolas, monospace" font-size="48px" text-anchor="start">BPM</text>
  <text x="150" y="56.400000000000006" fill="#45e3ff" font-family="Consolas, monospace" font-size="48px" text-anchor="start">95</text>
  <rect x="660" y="24" width="42" height="42" fill="#ff4c5c" />
  <rect x="0" y="75" width="360" height="330" fill="#000000" />
  <text x="6" y="158.4" fill="#2dff64" font-family="Consolas, monospace" font-size="48px" text-anchor="start">></text>
  <text x="42" y="158.4" fill="#2dff64" font-family="Consolas, monospace" font-size="48px" text-anchor="start">Stp:</text>
  <text x="186" y="158.4" fill="#2dff64" font-family="Consolas, monospace" font-size="48px" text-anchor="start">16</text>
  <text x="6" y="224.4" fill="#2dff64" font-family="Consolas, monospace" font-size="48px" text-anchor="start">></text>
  <text x="42" y="224.4" fill="#2dff64" font-family="Consolas, monospace" font-size="48px" text-anchor="start">Hit:</text>
  <text x="186" y="224.4" fill="#2dff64" font-family="Consolas, monospace" font-size="48px" text-anchor="start">3</text>
  <text x="6" y="290.4" fill="#2dff64" font-family="Consolas, monospace" font-size="48px" text-anchor="start">></text>
  <text x="42" y="290.4" fill="#2dff64" font-family="Consolas, monospace" font-size="48px" text-anchor="start">Rot:</text>
  <text x="186" y="290.4" fill="#2dff64" font-family="Consolas, monospace" font-size="48px" text-anchor="start">1</text>
  <text x="42" y="362.4" fill="#ffe15a" font-family="Consolas, monospace" font-size="48px" text-anchor="start">SNARE</text>
  <rect x="315" y="75" width="405" height="330" fill="#000000" />
  <circle cx="645" cy="210" r="3" fill="#ff4c5c" />
  <circle cx="510" cy="345" r="3" fill="#ff4c5c" />
  <circle cx="375" cy="210" r="3" fill="#ff4c5c" />
  <rect x="510" y="102" width="3" height="3" fill="#7f7f7f" />
  <rect x="552" y="111" width="3" height="3" fill="#7f7f7f" />
  <rect x="585" y="135" width="3" height="3" fill="#7f7f7f" />
  <rect x="609" y="168" width="3" height="3" fill="#7f7f7f" />
  <rect x="618" y="210" width="3" height="3" fill="#7f7f7f" />
  <rect x="609" y="252" width="3" height="3" fill="#7f7f7f" />
  <rect x="585" y="285" width="3" height="3" fill="#7f7f7f" />
  <circle cx="552" cy="309" r="6" fill="#ffe15a" />
  <rect x="510" y="318" width="3" height="3" fill="#7f7f7f" />
  <rect x="468" y="309" width="3" height="3" fill="#7f7f7f" />
  <rect x="435" y="285" width="3" height="3" fill="#7f7f7f" />
  <rect x="411" y="252" width="3" height="3" fill="#7f7f7f" />
  <circle cx="402" cy="210" r="6" fill="#ffe15a" />
  <rect x="411" y="168" width="3" height="3" fill="#7f7f7f" />
  <rect x="435" y="135" width="3" height="3" fill="#7f7f7f" />
  <rect x="468" y="111" width="3" height="3" fill="#7f7f7f" />
  <circle cx="567" cy="153" r="3" fill="#45e3ff" />
  <circle cx="591" cy="210" r="3" fill="#45e3ff" />
  <circle cx="567" cy="267" r="3" fill="#45e3ff" />
  <circle cx="510" cy="291" r="3" fill="#45e3ff" />
  <circle cx="453" cy="267" r="3" fill="#45e3ff" />
  <circle cx="429" cy="210" r="3" fill="#45e3ff" />
  <circle cx="453" cy="153" r="3" fill="#45e3ff" />
  <circle cx="510" cy="210" r="6" fill="#7f7f7f" />
  <circle cx="510" cy="192" r="6" fill="#ffffff" />
  <circle cx="510" cy="30" r="6" stroke="#7f7f7f" stroke-width="3" fill="none" />
  <circle cx="690" cy="210" r="6" stroke="#7f7f7f" stroke-width="3" fill="none" />
  <circle cx="510" cy="390" r="6" stroke="#7f7f7f" stroke-width="3" fill="none" />
  <circle cx="330" cy="210" r="6" stroke="#7f7f7f" stroke-width="3" fill="none" />
</svg>