<svg xmlns="http://www.w3.org/2000/svg" viewBox="0 0 720 405" width="720" height="405">
  <rect width="720" height="405" fill="#000000" />
  <rect x="0" y="0" width="720" height="84" fill="#000000" />
  <text x="18" y="56.400000000000006" fill="#7f7f7f" font-family="Consolas, monospace" font-size="48px" text-anchor="start">BPM</text>
  <text x="150" y="56.400000000000006" fill="#45e3ff" font-family="Consolas, monospace" font-size="48px" text-anchor="start">120</text>
  <polygon points="660,24 660,66 705,45" fill="#2dff64" />
  <rect x="0" y="75" width="360" height="330" fill="#000000" />
  <text x="6" y="158.4" fill="#2dff64" font-family="Consolas, monospace" font-size="48px" text-anchor="start">></text>
  <text x="42" y="158.4" fill="#2dff64" font-family="Consolas, monospace" font-size="48px" text-anchor="start">Stp:</text>
  <text x="186" y="158.4" fill="#2dff64" font-family="Consolas, monospace" font-size="48px" text-anchor="start">16</text>
  <text x="6" y="224.4" fill="#2dff64" font-family="Consolas, monospace" font-size="48px" text-anchor="start">></text>
  <text x="42" y="224.4" fill="#2dff64" font-family="Consolas, monospace" font-size="48px" text-anchor="start">Hit:</text>
  <text x="186" y="224.4" fill="#2dff64" font-family="Consolas, monospace" font-size="48px" text-anchor="start">4</text>
  <text x="6" y="290.4" fill="#2dff64" font-family="Consolas, monospace" font-size="48px" text-anchor="start">></text>
  <text x="42" y="290.4" fill="#2dff64" font-family="Consolas, monospace" font-size="48px" text-anchor="start">Rot:</text>
  <text x="186" y="290.4" fill="#2dff64" font-family="Consolas, monospace" font-size="48px" text-anchor="start">0</text>
  <text x="42" y="362.4" fill="#ff4c5c" font-family="Consolas, monospace" font-size="48px" text-anchor="start">KICK</text>
  <rect x="315" y="75" width="405" height="330" fill="#000000" />
  <rect x="510" y="75" width="3" height="3" fill="#7f7f7f" />
  <rect x="561" y="84" width="3" height="3" fill="#7f7f7f" />
  <rect x="606" y="114" width="3" height="3" fill="#7f7f7f" />
  <rect x="636" y="159" width="3" height="3" fill="#7f7f7f" />
  <circle cx="645" cy="210" r="6" fill="#ff4c5c" />
  <rect x="636" y="261" width="3" height="3" fill="#7f7f7f" />
  <rect x="606" y="306" width="3" height="3" fill="#7f7f7f" />
  <rect x="561" y="336" width="3" height="3" fill="#7f7f7f" />
  <circle cx="510" cy="345" r="6" fill="#ff4c5c" />
  <rect x="459" y="336" width="3" height="3" fill="#7f7f7f" />
  <rect x="414" y="306" width="3" height="3" fill="#7f7f7f" />
  <rect x="384" y="261" width="3" height="3" fill="#7f7f7f" />
  <circle cx="375" cy="210" r="6" fill="#ff4c5c" />
  <rect x="384" y="159" width="3" height="3" fill="#7f7f7f" />
  <rect x="414" y="114" width="3" height="3" fill="#7f7f7f" />
  <rect x="459" y="84" width="3" height="3" fill="#7f7f7f" />
  <circle cx="402" cy="210" r="3" fill="#ffe15a" />
  <circle cx="567" cy="153" r="3" fill="#45e3ff" />
  <circle cx="591" cy="210" r="3" fill="#45e3ff" />
  <circle cx="567" cy="267" r="3" fill="#45e3ff" />
  <circle cx="510" cy="291" r="3" fill="#45e3ff" />
  <circle cx="453" cy="267" r="3" fill="#45e3ff" />
  <circle cx="429" cy="210" r="3" fill="#45e3ff" />
  <circle cx="453" cy="153" r="3" fill="#45e3ff" />
  <circle cx="510" cy="210" r="6" fill="#7f7f7f" />
  <circle cx="528" cy="210" r="6" fill="#ffffff" />
  <circle cx="510" cy="30" r="6" stroke="#7f7f7f" stroke-width="3" fill="none" />
  <circle cx="690" cy="210" r="21" stroke="#2dff64" stroke-width="3" fill="none" />
  <circle cx="690" cy="210" r="15" fill="#2dff64" />
  <circle cx="510" cy="390" r="6" stroke="#7f7f7f" stroke-width="3" fill="none" />
  <circle cx="330" cy="210" r="6" stroke="#7f7f7f" stroke-width="3" fill="none" />
</svg>